<svg xmlns="http://www.w3.org/2000/svg" viewBox="0 0 1200 900" width="1200" height="900" role="img" aria-label="PRINTING">
  <defs>
    <linearGradient id="g12" x1="0" y1="0" x2="1" y2="1">
      <stop offset="0" stop-color="#1c1e21"/>
      <stop offset="1" stop-color="#3c4045"/>
    </linearGradient>
    <radialGradient id="g12b" cx="0.75" cy="0.15" r="0.9">
      <stop offset="0" stop-color="#8fa9c9" stop-opacity="0.5"/>
      <stop offset="1" stop-color="#6d8cb3" stop-opacity="0"/>
    </radialGradient>
    <pattern id="g12grid" width="48" height="48" patternUnits="userSpaceOnUse">
      <path d="M48 0H0V48" fill="none" stroke="#ffffff" stroke-opacity="0.07" stroke-width="1"/>
    </pattern>
  </defs>
  <rect width="1200" height="900" fill="url(#g12)"/>
  <rect width="1200" height="900" fill="url(#g12grid)"/>
  <rect width="1200" height="900" fill="url(#g12b)"/>
  <rect x="96" y="656" width="137" height="82" rx="46" fill="#ffffff" opacity="0.062"/><rect x="240" y="432" width="69" height="306" rx="23" fill="#ffffff" opacity="0.091"/><rect x="384" y="499" width="71" height="239" rx="24" fill="#ffffff" opacity="0.062"/><rect x="528" y="421" width="72" height="317" rx="24" fill="#ffffff" opacity="0.077"/><rect x="672" y="379" width="124" height="359" rx="41" fill="#ffffff" opacity="0.093"/><rect x="816" y="549" width="155" height="189" rx="52" fill="#ffffff" opacity="0.070"/><rect x="960" y="500" width="95" height="238" rx="32" fill="#ffffff" opacity="0.107"/>
  <path d="M0 702 C 360 495.00000000000006, 744 648, 1200 378 L 1200 900 L 0 900 Z" fill="#000000" opacity="0.22"/>
  <path d="M0 774 C 408.00000000000006 594, 792 738, 1200 504.00000000000006" fill="none" stroke="#ffffff" stroke-opacity="0.16" stroke-width="2"/>
  <g transform="translate(600 378)" opacity="0.07">
    <circle r="153" fill="#ffffff"/>
    <path d="M0 -117 L 99 99 L -99 99 Z" fill="#1c1e21"/>
  </g>
  <text x="54" y="846" font-family="system-ui, -apple-system, Segoe UI, sans-serif" font-size="24" font-weight="600" letter-spacing="3" fill="#ffffff" fill-opacity="0.28">PRINTING</text>
</svg>