<svg xmlns="http://www.w3.org/2000/svg" viewBox="0 0 1280 960" width="1280" height="960" role="img" aria-label="WAREHOUSE">
  <defs>
    <linearGradient id="g5" x1="0" y1="0" x2="1" y2="1">
      <stop offset="0" stop-color="#0a1220"/>
      <stop offset="1" stop-color="#1a2b44"/>
    </linearGradient>
    <radialGradient id="g5b" cx="0.75" cy="0.15" r="0.9">
      <stop offset="0" stop-color="#8fa9c9" stop-opacity="0.5"/>
      <stop offset="1" stop-color="#6d8cb3" stop-opacity="0"/>
    </radialGradient>
    <pattern id="g5grid" width="48" height="48" patternUnits="userSpaceOnUse">
      <path d="M48 0H0V48" fill="none" stroke="#ffffff" stroke-opacity="0.07" stroke-width="1"/>
    </pattern>
  </defs>
  <rect width="1280" height="960" fill="url(#g5)"/>
  <rect width="1280" height="960" fill="url(#g5grid)"/>
  <rect width="1280" height="960" fill="url(#g5b)"/>
  <rect x="102" y="558" width="165" height="229" rx="55" fill="#ffffff" opacity="0.097"/><rect x="256" y="605" width="122" height="182" rx="41" fill="#ffffff" opacity="0.041"/><rect x="410" y="409" width="71" height="378" rx="24" fill="#ffffff" opacity="0.071"/><rect x="563" y="484" width="66" height="303" rx="22" fill="#ffffff" opacity="0.076"/><rect x="717" y="697" width="161" height="90" rx="54" fill="#ffffff" opacity="0.084"/><rect x="870" y="584" width="152" height="203" rx="51" fill="#ffffff" opacity="0.055"/><rect x="1024" y="662" width="93" height="125" rx="31" fill="#ffffff" opacity="0.088"/>
  <path d="M0 748.8000000000001 C 384 528, 793.6 691.1999999999999, 1280 403.2 L 1280 960 L 0 960 Z" fill="#000000" opacity="0.22"/>
  <path d="M0 825.6 C 435.20000000000005 633.6, 844.8000000000001 787.1999999999999, 1280 537.6" fill="none" stroke="#ffffff" stroke-opacity="0.16" stroke-width="2"/>
  <g transform="translate(640 403)" opacity="0.07">
    <circle r="163" fill="#ffffff"/>
    <path d="M0 -125 L 106 106 L -106 106 Z" fill="#0a1220"/>
  </g>
  <text x="58" y="902" font-family="system-ui, -apple-system, Segoe UI, sans-serif" font-size="25" font-weight="600" letter-spacing="3" fill="#ffffff" fill-opacity="0.28">WAREHOUSE</text>
</svg>